HIERARCHY
ROOT COM
{
  OFFSET -10.5682 89.9488 26.191
  CHANNELS 6 Xposition Yposition Zposition Zrotation Xrotation Yrotation
  JOINT Spine
  {
    OFFSET 0 10.0313 -3.64775
    CHANNELS 3 Zrotation Xrotation Yrotation
    JOINT Spine1
    {
      OFFSET 0 14.268 -0.0123585
      CHANNELS 3 Zrotation Xrotation Yrotation
      JOINT Spine2
      {
        OFFSET 0 15.5534 -0.0118018
        CHANNELS 3 Zrotation Xrotation Yrotation
        JOINT Neck
        {
          OFFSET 0 15.3437 -0.00507736
          CHANNELS 3 Zrotation Xrotation Yrotation
          JOINT Head
          {
            OFFSET 0 6.5943 0
            CHANNELS 3 Zrotation Xrotation Yrotation
            End Site
            {
              OFFSET 0 0 0
            }
          }
          JOINT Leftcollar
          {
            OFFSET 4.25429 -1.5481 1.99067
            CHANNELS 3 Zrotation Xrotation Yrotation
            JOINT LeftArm
            {
              OFFSET 16.8259 0 0
              CHANNELS 3 Zrotation Xrotation Yrotation
              JOINT LeftForeArm
              {
                OFFSET 0 -28.058 0
                CHANNELS 3 Zrotation Xrotation Yrotation
                JOINT LeftHand
                {
                  OFFSET 0 -24.7253 0
                  CHANNELS 3 Zrotation Xrotation Yrotation
                  End Site
                  {
                    OFFSET -2.98615 -9.94619 -0.575321
                  }
                }
              }
            }
          }
          JOINT RightCollar
          {
            OFFSET -4.25428 -1.54809 1.99069
            CHANNELS 3 Zrotation Xrotation Yrotation
            JOINT RightArm
            {
              OFFSET -16.8259 0 0
              CHANNELS 3 Zrotation Xrotation Yrotation
              JOINT RightForeArm
              {
                OFFSET 0 -28.058 0
                CHANNELS 3 Zrotation Xrotation Yrotation
                JOINT RightHand
                {
                  OFFSET 0 -24.7253 0
                  CHANNELS 3 Zrotation Xrotation Yrotation
                  End Site
                  {
                    OFFSET 2.98615 -9.94618 -0.575319
                  }
                }
              }
            }
          }
        }
      }
    }
  }
  JOINT LeftUpLeg
  {
    OFFSET 9.94275 0 0
    CHANNELS 3 Zrotation Xrotation Yrotation
    JOINT LeftLeg
    {
      OFFSET 0 -45.973 0
      CHANNELS 3 Zrotation Xrotation Yrotation
      JOINT LeftFoot
      {
        OFFSET 0 -43.1634 0
        CHANNELS 3 Zrotation Xrotation Yrotation
        JOINT LeftToe
        {
          OFFSET 0 0 15.6286
          CHANNELS 3 Zrotation Xrotation Yrotation
          End Site
          {
            OFFSET 0 0 0
          }
        }
      }
    }
  }
  JOINT RightUpLeg
  {
    OFFSET -9.94275 0 0
    CHANNELS 3 Zrotation Xrotation Yrotation
    JOINT RightLeg
    {
      OFFSET 0 -45.973 0
      CHANNELS 3 Zrotation Xrotation Yrotation
      JOINT RightFoot
      {
        OFFSET 0 -43.1634 0
        CHANNELS 3 Zrotation Xrotation Yrotation
        JOINT RightToe
        {
          OFFSET 0 0 15.6286
          CHANNELS 3 Zrotation Xrotation Yrotation
          End Site
          {
            OFFSET 0 0 0
          }
        }
      }
    }
  }
}
MOTION
Frames:	11
Frame Time:	0.0333333
-11.0309 93.6331 60.4398 -3.38535 3.5707 92.6479 -3.10843 2.80856 -0 -8.05428e-016 7.54761e-016 7.78645 9.93923e-017 -9.81499e-016 -1.59028e-015 2.48481e-016 -1.00635e-015 -1.59028e-015 -4.96962e-017 -1.87603e-015 1.59028e-015 -4.96962e-017 -1.87603e-015 1.59028e-015 30.1031 6.52979 -27.2893 -1.5499e-015 -18.8703 5.04181e-015 1.59028e-014 -9.73764e-031 90 -4.96962e-017 -1.87603e-015 1.59028e-015 -45.4283 -2.87209 3.95549 1.58165e-015 -18.3417 5.02618e-015 3.49861e-014 2.14228e-030 -90 10.5556 -14.7455 32.2349 5.44933e-015 46.9664 -1.3982e-014 1.55381e-008 5.27593 -1.86606 -1.59028e-015 1.03368e-014 -0 -7.71548 1.53215 -61.814 4.76312e-016 2.86933 6.36909e-015 -2.60733e-007 17.3042 13.078 -3.18055e-015 -1.59028e-015 3.18055e-015 
-10.8098 93.8065 60.4777 -4.45876 3.7656 97.6076 -3.48117 2.47279 1.59176e-015 -6.47483e-015 3.69421e-016 8.10803 -2.17421e-017 5.2181e-016 -0 -4.14652e-016 5.56752e-016 -0 -4.09993e-016 5.98684e-016 -0 -4.09993e-016 5.98684e-016 -0 31.6943 7.98171 -23.8467 4.67633e-015 -18.1159 4.81051e-015 -5.40694e-014 3.3108e-030 90 -4.09993e-016 5.98684e-016 -0 -48.0365 -3.4709 -2.43602 -3.18055e-015 -18.2787 -0 -2.8625e-014 -1.75278e-030 -90 9.95826 -16.6259 34.8193 -1.24475e-014 42.4155 4.3081e-015 -7.07058e-009 5.91868 -2.28262 6.36111e-015 3.18055e-015 -6.36111e-015 -7.97088 1.80579 -64.5949 1.40905e-015 3.26121 3.18571e-015 -1.62693e-007 16.9113 11.2388 5.29669e-031 -4.77083e-015 6.36111e-015 
-10.5599 93.8945 60.3118 -5.8544 3.63142 102.199 -3.8222 1.69775 -0 1.07137e-015 -1.11816e-016 8.38378 -2.98177e-016 6.21202e-016 -0 -1.2921e-015 6.4605e-016 3.18055e-015 1.49089e-016 8.94531e-016 -0 1.49089e-016 8.94531e-016 -0 32.7319 9.63139 -20.3107 -4.81453e-015 -17.9613 5.01525e-015 -5.40694e-014 3.3108e-030 90 1.49089e-016 8.94531e-016 -0 -49.9073 -4.10096 -9.66999 -1.06155e-015 -18.4571 -3.35303e-015 -3.18055e-015 -1.94753e-031 -90 8.82501 -18.4031 37.5612 -6.42427e-015 37.0515 1.59407e-014 -3.56988e-009 6.4685 -3.67346 -1.59028e-015 -4.77083e-015 -3.18055e-015 -7.94525 1.7735 -66.6973 5.73766e-016 3.17084 -3.18543e-015 3.25301e-007 16.7349 9.09544 3.18055e-015 4.77083e-015 -3.18055e-015 
-10.2256 93.8764 59.9338 -6.62686 3.34248 106.381 -4.15948 1.42424 -3.18154e-015 -6.21358e-016 1.44119e-015 8.64884 -5.96354e-016 -2.48481e-016 9.54166e-015 -3.97569e-016 -4.47266e-016 6.36111e-015 -9.93923e-016 1.09332e-015 6.36111e-015 -9.93923e-016 1.09332e-015 6.36111e-015 33.217 11.2428 -16.7392 5.10166e-016 -17.7864 1.67011e-015 -1.01778e-013 6.23209e-030 90 -9.93923e-016 1.09332e-015 6.36111e-015 -51.0905 -4.60071 -15.0941 -7.45405e-015 -18.9644 -3.3631e-015 -1.59028e-014 -9.73764e-031 -90 7.49671 -19.2274 40.9555 1.59028e-015 31.772 -0 -1.1296e-008 7.60278 -6.46074 -1.59028e-015 0 -3.18055e-015 -7.71332 2.38479 -68.3183 3.37946e-016 2.74325 9.55261e-015 9.68192e-008 16.859 6.84023 1.59028e-015 0 -6.36111e-015 
-10.0077 93.7252 59.3936 -7.8324 2.43099 109.904 -4.18632 0.578037 3.18072e-015 3.53499e-015 -6.95746e-016 9.15146 3.97569e-016 2.98177e-016 -0 3.97569e-016 -9.93923e-017 -3.18055e-015 3.97569e-016 -7.95139e-016 -3.18055e-015 3.97569e-016 -7.95139e-016 -3.18055e-015 33.0251 12.6281 -13.3367 3.18055e-015 -17.5084 -0 -2.22639e-014 1.36327e-030 90 3.97569e-016 -7.95139e-016 -3.18055e-015 -51.687 -5.26478 -19.8919 -3.76088e-015 -20.048 -1.69285e-015 1.27222e-014 7.79011e-031 -90 6.20846 -20.349 44.8997 4.75969e-015 26.5115 -1.06629e-014 -1.01411e-007 8.58043 -8.43985 1.59028e-015 3.18055e-015 3.18055e-015 -7.33703 2.11818 -69.2539 1.74394e-015 2.76606 -3.18426e-015 -6.35715e-009 16.6543 4.60606 1.59028e-015 6.36111e-015 -3.18055e-015 
-9.57524 93.4982 58.4721 -8.1991 1.82307 112.865 -4.29986 0.271734 6.36118e-015 8.41508e-016 -1.98785e-016 9.84299 7.95139e-016 -3.97569e-016 6.36111e-015 7.95139e-016 -9.93923e-016 3.18055e-015 3.97569e-016 -7.95139e-016 6.36111e-015 3.97569e-016 -7.95139e-016 6.36111e-015 32.3292 14.3811 -11.6526 -3.18055e-015 -17.3456 -0 -0 0 90 3.97569e-016 -7.95139e-016 6.36111e-015 -51.6947 -5.71698 -22.0268 6.36111e-015 -21.5738 -0 6.36111e-015 3.89506e-031 -90 4.31483 -19.9588 48.4757 2.7375e-015 21.271 3.41307e-015 -9.91639e-008 9.08274 -8.80933 3.18055e-015 1.59028e-015 -0 -7.25112 2.82101 -70.8436 9.5139e-016 2.81252 -3.18439e-015 4.26717e-008 16.6708 3.60726 -7.95139e-016 -1.59028e-015 3.18055e-015 
-9.05182 93.1073 57.3364 -8.46558 1.05216 114.946 -4.35763 -0.237926 -0 -4.60372e-015 7.95139e-016 10.797 -7.95139e-016 -1.98785e-016 6.36111e-015 -0 -1.98785e-016 -0 -3.97569e-016 7.95139e-016 -6.36111e-015 -3.97569e-016 7.95139e-016 -6.36111e-015 31.3793 16.631 -11.485 -5.35512e-015 -17.5518 3.33586e-015 -5.40694e-014 3.3108e-030 90 -3.97569e-016 7.95139e-016 -6.36111e-015 -51.1294 -6.31364 -21.8052 -7.74819e-015 -23.5627 -3.46986e-015 6.36111e-015 3.89506e-031 -90 2.69926 -19.0933 52.3183 -1.19271e-015 16.7449 -0 -1.21413e-007 9.45497 -9.10164 -1.59028e-015 0 -0 -7.18308 3.41448 -72.3199 2.72984e-015 3.09928 -6.37043e-015 5.91748e-008 16.5904 3.26144 -1.59028e-015 -3.97569e-015 -0 
-8.42987 92.7034 55.8644 -8.45953 0.608871 116.312 -4.7066 -0.613081 -3.18074e-015 -4.73185e-015 -2.5842e-015 12.0994 -1.76556e-031 -1.59028e-015 -6.36111e-015 -1.19271e-015 -3.97569e-016 -0 -3.97569e-016 3.97569e-016 -0 -3.97569e-016 3.97569e-016 -0 29.99 18.9732 -12.3905 -3.59169e-015 -17.4653 -6.66854e-015 1.59028e-015 -9.73764e-032 90 -3.97569e-016 3.97569e-016 -0 -49.8701 -6.8042 -20.3048 -4.72267e-015 -25.8667 -3.53469e-015 3.33958e-014 2.0449e-030 -90 1.086 -17.483 54.8983 -1.25065e-016 13.2 4.9003e-015 -1.69529e-007 11.5388 -10.8792 2.38542e-015 -1.59028e-015 -3.18055e-015 -7.63366 4.33059 -73.3701 9.97159e-016 3.6344 -3.18696e-015 3.52217e-008 16.473 3.1843 -7.95139e-016 -7.95139e-016 6.36111e-015 
-7.70718 92.3627 53.9474 -8.28568 0.898316 117.922 -5.72363 -0.817266 -3.18088e-015 -7.95093e-015 9.93923e-016 12.3615 -3.97569e-016 -7.95139e-016 6.36111e-015 1.59028e-015 -1.59028e-015 -3.18055e-015 -4.41391e-032 3.97569e-016 6.36111e-015 -4.41391e-032 3.97569e-016 6.36111e-015 28.3103 21.8676 -14.4828 -3.3786e-015 -17.3419 -3.33202e-015 -8.26944e-014 5.06357e-030 90 -4.41391e-032 3.97569e-016 6.36111e-015 -47.7157 -7.67528 -18.0126 -9.54166e-015 -28.0389 -0 3.18055e-014 1.94753e-030 -90 -1.17327 -15.3855 56.224 9.37546e-016 10.1539 -8.0779e-016 1.55326e-007 14.8405 -13.5737 3.53113e-031 6.36111e-015 -3.18055e-015 -9.12765 5.97388 -74.8781 -1.85234e-015 4.71025 3.19133e-015 -4.64083e-009 16.9417 3.72235 -7.95139e-016 6.36111e-015 3.18055e-015 
-7.07494 92.373 51.6551 -8.41083 1.55322 120.331 -7.15724 -1.05893 -3.1811e-015 7.58681e-015 -3.18055e-015 12.013 -3.97569e-016 7.95139e-016 -6.36111e-015 7.95139e-016 7.95139e-016 -1.59028e-014 7.95139e-016 -3.97569e-016 -9.54166e-015 7.95139e-016 -3.97569e-016 -9.54166e-015 26.2949 23.8972 -17.9053 -1.63337e-015 -16.6441 3.31964e-015 2.38542e-014 -1.46065e-030 90 7.95139e-016 -3.97569e-016 -9.54166e-015 -44.2566 -7.64517 -16.8711 6.36111e-015 -31.5183 -0 -6.36111e-015 -3.89506e-031 -90 -3.96532 -13.9627 53.2623 2.70345e-016 9.09043 8.05252e-016 -6.93871e-008 14.4419 -13.4707 3.18055e-015 -3.18055e-015 -3.18055e-015 -11.5072 7.71556 -76.4065 -3.53371e-015 6.33593 3.2001e-015 6.39825e-008 18.5855 3.59648 -1.59028e-015 7.95139e-016 -9.54166e-015 
-6.5518 92.5375 49.0914 -8.36537 1.60802 122.994 -7.76125 -1.34407 6.36286e-015 -6.49207e-015 -1.98785e-015 11.5551 -3.97569e-016 -1.98785e-015 3.18055e-015 3.97569e-016 -3.97569e-016 3.18055e-015 3.97569e-016 0 -3.18055e-015 3.97569e-016 0 -3.18055e-015 24.0251 25.0569 -20.9643 -4.86286e-015 -15.5857 -3.30197e-015 7.95139e-015 -4.86882e-031 90 3.97569e-016 0 -3.18055e-015 -40.7142 -6.3211 -14.7342 -8.63953e-015 -35.6163 -3.91243e-015 1.07592e-014 6.58812e-031 -90 -5.91782 -12.8116 50.1218 2.64235e-017 8.99144 -8.05031e-016 7.67093e-008 13.7239 -13.5357 3.97569e-015 0 -0 -14.0507 9.2045 -75.1014 3.18055e-015 9.41949 -0 1.07926e-008 20.6553 1.36112 7.95139e-016 1.59028e-015 -0 
